<svg width="56" height="57" viewBox="0 0 56 57" fill="none" xmlns="http://www.w3.org/2000/svg">
<rect width="56" height="56" transform="translate(0 0.181152)" fill="white"/>
<path fill-rule="evenodd" clip-rule="evenodd" d="M33.6569 32.424L29.4142 28.1814L33.6569 23.9387C34.0472 23.5484 34.0472 22.9149 33.6569 22.5245C33.2665 22.1342 32.633 22.1342 32.2426 22.5245L28 26.7672L23.7574 22.5245C23.367 22.1342 22.7335 22.1342 22.3431 22.5245C21.9528 22.9149 21.9528 23.5484 22.3431 23.9387L26.5858 28.1814L22.3431 32.424C21.9521 32.8151 21.9528 33.4479 22.3431 33.8382C22.7335 34.2286 23.3663 34.2293 23.7574 33.8382L28 29.5956L32.2426 33.8382C32.6337 34.2293 33.2665 34.2286 33.6569 33.8382C34.0472 33.4479 34.0479 32.8151 33.6569 32.424Z" fill="#313037"/>
</svg>
