<svg width="85" height="84" viewBox="0 0 85 84" fill="none" xmlns="http://www.w3.org/2000/svg">
<path d="M1.45559e-05 0L3.67176e-06 84" stroke="#5360CD"/>
<path d="M84 0L84 84" stroke="#5360CD"/>
<path fill-rule="evenodd" clip-rule="evenodd" d="M51 36H33C32.448 36 32 35.552 32 35C32 34.448 32.448 34 33 34H51C51.553 34 52 34.448 52 35C52 35.552 51.553 36 51 36ZM51 42H33C32.448 42 32 41.552 32 41C32 40.448 32.448 40 33 40H51C51.553 40 52 40.448 52 41C52 41.552 51.553 42 51 42ZM33 48H51C51.553 48 52 47.553 52 47C52 46.447 51.553 46 51 46H33C32.448 46 32 46.447 32 47C32 47.553 32.448 48 33 48Z" fill="white"/>
</svg>
